<?xml version="1.0" encoding="UTF-8"?>
<svg version="1.1" xmlns="http://www.w3.org/2000/svg" width="4000" height="4000" viewBox="0 0 4000 4000">
<path d="M 3166.00 1862.00 L 3376.00 2286.00 L 3386.00 2298.00 L 3386.00 2306.00 L 3474.00 2482.00 L 3502.00 2530.00 L 3506.00 2546.00 L 3520.00 2566.00 L 3564.00 2662.00 L 3636.00 2798.00 L 3680.00 2894.00 L 3698.00 2920.00 L 3720.00 3034.00 L 3714.00 3038.00 L 2914.00 3036.00 L 2878.00 3020.00 L 2444.00 2198.00 L 2238.00 1812.00 L 2226.00 1752.00 L 2238.00 1694.00 L 2246.00 1678.00 L 2474.00 1266.00 L 2482.00 1244.00 L 2544.00 1136.00 L 2616.00 996.00 L 2668.00 968.00 L 2714.00 990.00 L 2728.00 1004.00 L 2734.00 1024.00 L 2858.00 1246.00 L 2868.00 1300.00 L 2854.00 1368.00 L 2444.00 2198.00 L 2124.00 2840.00 L 2050.00 2998.00 L 1998.00 3024.00 L 1948.00 3000.00 L 1944.00 2984.00 L 1936.00 2976.00 L 1848.00 2790.00 L 1812.00 2726.00 L 1812.00 2718.00 L 1780.00 2660.00 L 1746.00 2584.00 L 1702.00 2504.00 L 1552.00 2199.00 L 1274.00 1628.00 L 1264.00 1616.00 L 1194.00 1466.00 L 1144.00 1372.00 L 1130.00 1332.00 L 1126.00 1302.00 L 1138.00 1246.00 L 1272.00 1004.00 L 1278.00 996.00 L 1328.00 972.00 L 1384.00 1000.00 L 1440.00 1112.00 L 1748.00 1672.00 L 1760.00 1696.00 L 1772.00 1746.00 L 1760.00 1812.00 L 1552.00 2199.00 L 1336.00 2604.00 L 1266.00 2744.00 L 1256.00 2756.00 L 1230.00 2806.00 L 1230.00 2814.00 L 1224.00 2818.00 L 1198.00 2866.00 L 1172.00 2924.00 L 1144.00 2968.00 L 1126.00 3010.00 L 1116.00 3020.00 L 1080.00 3036.00 L 286.00 3036.00 L 282.00 3032.00 L 306.00 2908.00 L 832.00 1864.00" fill="none" stroke="#FFFFF" stroke-width="100" stroke-linecap="round" stroke-linejoin="round"/>
</svg>
